<?xml version="1.0" encoding="UTF-8" standalone="no"?>
<!-- Created with Inkscape (http://www.inkscape.org/) -->

<svg
   width="1256"
   height="232"
   viewBox="0 0 332.31665 61.383332"
   version="1.1"
   id="svg1"
   xml:space="preserve"
   inkscape:version="1.4.2 (f4327f4, 2025-05-13)"
   sodipodi:docname="header.svg"
   xmlns:inkscape="http://www.inkscape.org/namespaces/inkscape"
   xmlns:sodipodi="http://sodipodi.sourceforge.net/DTD/sodipodi-0.dtd"
   xmlns="http://www.w3.org/2000/svg"
   xmlns:svg="http://www.w3.org/2000/svg"><sodipodi:namedview
     id="namedview1"
     pagecolor="#ffffff"
     bordercolor="#000000"
     borderopacity="0.25"
     inkscape:showpageshadow="2"
     inkscape:pageopacity="0.0"
     inkscape:pagecheckerboard="0"
     inkscape:deskcolor="#d1d1d1"
     inkscape:document-units="px"
     inkscape:zoom="0.65961595"
     inkscape:cx="658.71664"
     inkscape:cy="178.13396"
     inkscape:window-width="1920"
     inkscape:window-height="1017"
     inkscape:window-x="-8"
     inkscape:window-y="1072"
     inkscape:window-maximized="1"
     inkscape:current-layer="layer1"
     showguides="true" /><defs
     id="defs1" /><g
     inkscape:label="Calque 1"
     inkscape:groupmode="layer"
     id="layer1"><rect
       style="opacity:1;fill:#4d4c5a;stroke:none;stroke-width:4.05865;stroke-linecap:round;stroke-linejoin:round;paint-order:markers stroke fill;fill-opacity:1"
       id="rect5"
       width="328.08331"
       height="57.149998"
       x="2.1166708"
       y="2.1166668"
       ry="7.8217859" /><g
       id="g5"
       transform="translate(-3.1750099,-16.933334)"><rect
         style="fill:#c2ed66;fill-opacity:1;stroke:none;stroke-width:0.394341;stroke-linecap:round;stroke-linejoin:round;stroke-dasharray:none;stroke-opacity:1;paint-order:stroke fill markers"
         id="rect2"
         width="16.933332"
         height="50.799999"
         x="313.26666"
         y="22.224998"
         rx="0"
         ry="0" /><rect
         style="fill:#e06178;fill-opacity:1;stroke:none;stroke-width:0.394341;stroke-linecap:round;stroke-linejoin:round;stroke-dasharray:none;stroke-opacity:1;paint-order:stroke fill markers"
         id="rect3"
         width="16.933332"
         height="50.799999"
         x="8.4666662"
         y="22.224998"
         rx="0"
         ry="0" /><rect
         style="fill:none;fill-opacity:1;stroke:#000000;stroke-width:4.23333;stroke-linecap:round;stroke-linejoin:round;stroke-dasharray:none;stroke-opacity:1;paint-order:stroke fill markers"
         id="rect4"
         width="325.96667"
         height="55.033333"
         x="6.3499999"
         y="20.108334"
         rx="6.3499999"
         ry="6.3499999" /><path
         id="rect1"
         style="fill:#8eef97;fill-opacity:1;stroke-width:59.9199;stroke-linecap:round;paint-order:stroke fill markers"
         d="M 71.954789 22.225 C 69.609853 22.225 67.721972 24.113069 67.721972 26.458334 L 67.721972 68.791665 C 67.721972 71.136933 69.609853 73.024999 71.954789 73.024999 L 266.71189 73.024999 C 269.0568 73.024999 270.9447 71.136933 270.9447 68.791665 L 270.9447 26.458334 C 270.9447 24.113069 269.0568 22.225 266.71189 22.225 L 71.954789 22.225 z M 54.860225 30.690117 C 54.015694 30.723051 53.178696 31.010028 52.477425 31.535026 L 35.563213 44.235026 C 33.301215 45.92753 33.301215 49.305933 35.563213 50.998437 L 52.477425 63.698436 C 55.268686 65.799695 59.262469 63.802389 59.256339 60.308463 L 59.256339 34.925 C 59.25534 33.320399 58.345248 31.852787 56.908679 31.138151 C 56.371508 30.869328 55.800786 30.71906 55.22196 30.691667 C 55.101371 30.685959 54.980873 30.685412 54.860225 30.690117 z M 283.80645 30.690117 C 283.6858 30.685411 283.5653 30.68596 283.44471 30.691667 C 282.86592 30.719097 282.29518 30.869335 281.758 31.138151 C 280.32144 31.852792 279.41181 33.320399 279.41034 34.925 L 279.41034 60.308463 C 279.40434 63.802394 283.39801 65.799695 286.18925 63.698436 L 303.10346 50.998437 C 305.36544 49.305933 305.36544 45.92753 303.10346 44.235026 L 286.18925 31.535026 C 285.48799 31.010028 284.65097 30.723053 283.80645 30.690117 z " /><g
         id="path2"
         transform="matrix(7.1230679,0,0,7.1225672,-1.4099875,-65.171432)"
         style="stroke:none" /><g
         id="g4"
         transform="matrix(-7.1230679,0,0,7.1225672,112.53498,-65.171432)"><g
           id="path4"
           style="opacity:1" /></g><text
         xml:space="preserve"
         style="font-style:normal;font-variant:normal;font-weight:800;font-stretch:normal;font-size:25.4px;font-family:Montserrat;-inkscape-font-specification:'Montserrat Ultra-Bold';text-align:start;writing-mode:lr-tb;direction:ltr;text-anchor:start;fill:#000000;fill-opacity:1;stroke:none;stroke-width:0.264583;stroke-linecap:round;stroke-linejoin:round;stroke-dasharray:none;stroke-opacity:1;paint-order:stroke fill markers"
         x="82.834908"
         y="55.257698"
         id="text1"><tspan
           sodipodi:role="line"
           id="tspan1"
           style="font-style:normal;font-variant:normal;font-weight:800;font-stretch:normal;font-size:25.4px;font-family:Montserrat;-inkscape-font-specification:'Montserrat Ultra-Bold';fill:#000000;fill-opacity:1;stroke:none;stroke-width:0.264583;stroke-dasharray:none;stroke-opacity:1"
           x="82.834908"
           y="55.257698">Range Slider</tspan></text></g></g></svg>
