<?xml version="1.0" encoding="UTF-8" standalone="no"?>
<!-- Created with Inkscape (http://www.inkscape.org/) -->

<svg
   width="1280"
   height="640"
   viewBox="0 0 338.66665 169.33333"
   version="1.1"
   id="svg1"
   xml:space="preserve"
   inkscape:version="1.4.2 (f4327f4, 2025-05-13)"
   sodipodi:docname="range_slider_card.svg"
   inkscape:export-filename="range_slider_card.png"
   inkscape:export-xdpi="96"
   inkscape:export-ydpi="96"
   xmlns:inkscape="http://www.inkscape.org/namespaces/inkscape"
   xmlns:sodipodi="http://sodipodi.sourceforge.net/DTD/sodipodi-0.dtd"
   xmlns:xlink="http://www.w3.org/1999/xlink"
   xmlns="http://www.w3.org/2000/svg"
   xmlns:svg="http://www.w3.org/2000/svg"><sodipodi:namedview
     id="namedview1"
     pagecolor="#ffffff"
     bordercolor="#000000"
     borderopacity="0.25"
     inkscape:showpageshadow="2"
     inkscape:pageopacity="0.0"
     inkscape:pagecheckerboard="0"
     inkscape:deskcolor="#d1d1d1"
     inkscape:document-units="px"
     inkscape:zoom="0.46641891"
     inkscape:cx="534.92685"
     inkscape:cy="269.07142"
     inkscape:window-width="1920"
     inkscape:window-height="1017"
     inkscape:window-x="-8"
     inkscape:window-y="1072"
     inkscape:window-maximized="1"
     inkscape:current-layer="layer1"
     showguides="true"><sodipodi:guide
       position="21.166666,148.16666"
       orientation="-1,0"
       id="guide5"
       inkscape:locked="false"
       inkscape:label=""
       inkscape:color="rgb(0,134,229)" /><sodipodi:guide
       position="317.49999,148.16666"
       orientation="-1,0"
       id="guide6"
       inkscape:locked="false"
       inkscape:label=""
       inkscape:color="rgb(0,134,229)" /><sodipodi:guide
       position="21.166666,148.16666"
       orientation="0,1"
       id="guide7"
       inkscape:locked="false"
       inkscape:label=""
       inkscape:color="rgb(0,134,229)" /><sodipodi:guide
       position="21.166666,21.166666"
       orientation="0,1"
       id="guide8"
       inkscape:locked="false"
       inkscape:label=""
       inkscape:color="rgb(0,134,229)" /></sodipodi:namedview><defs
     id="defs1"><linearGradient
       id="swatch13"><stop
         style="stop-color:#ffffff;stop-opacity:1;"
         offset="0"
         id="stop13" /></linearGradient><linearGradient
       id="linearGradient5"
       inkscape:collect="always"><stop
         style="stop-color:#72739d;stop-opacity:1;"
         offset="0"
         id="stop5" /><stop
         style="stop-color:#4e5b7a;stop-opacity:1;"
         offset="0.53946722"
         id="stop8" /><stop
         style="stop-color:#424263;stop-opacity:1;"
         offset="1"
         id="stop6" /></linearGradient><linearGradient
       inkscape:collect="always"
       xlink:href="#linearGradient5"
       id="linearGradient8"
       x1="71.253853"
       y1="-49.741669"
       x2="245.41925"
       y2="111.125"
       gradientUnits="userSpaceOnUse"
       gradientTransform="matrix(1.025641,0,0,1.0526316,-4.2604735,-1.6153475)" /><filter
       inkscape:collect="always"
       style="color-interpolation-filters:sRGB"
       id="filter1"
       x="-0.018157134"
       y="-0.049304935"
       width="1.0363143"
       height="1.0986099"><feGaussianBlur
         inkscape:collect="always"
         stdDeviation="2.2419016"
         id="feGaussianBlur1" /></filter></defs><g
     inkscape:label="Calque 1"
     inkscape:groupmode="layer"
     id="layer1"
     transform="translate(3.1750009,53.974998)"><rect
       style="fill:url(#linearGradient8);stroke:none;stroke-width:0.705556;stroke-linecap:round;stroke-linejoin:round;paint-order:markers stroke fill"
       id="rect5"
       width="338.66666"
       height="169.33333"
       x="-3.1750009"
       y="-53.974998" /><g
       id="g16"
       transform="translate(13.759243,-37.572266)"
       style="opacity:0.30897436;mix-blend-mode:normal;filter:url(#filter1)"><path
         id="path13"
         style="baseline-shift:baseline;display:inline;overflow:visible;opacity:1;vector-effect:none;stroke-linecap:round;stroke-linejoin:round;paint-order:stroke fill markers;enable-background:accumulate;stop-color:#000000;stop-opacity:1"
         d="m 12.699088,17.992066 c -4.6539197,0 -8.466666,3.812747 -8.466666,8.466666 V 68.79103 c 0,4.653919 3.8127463,8.466667 8.466666,8.466667 H 292.09908 c 4.65392,0 8.46667,-3.812748 8.46667,-8.466667 V 26.458732 c 0,-4.653919 -3.81275,-8.466665 -8.46667,-8.466666 z m 30.64309,65.955661 c -0.735378,0 -1.544704,0.248489 -2.132686,0.781348 -0.560229,0.507707 -0.927592,1.331929 -0.927592,2.089795 0,0.283427 0.253586,0.499223 0.347266,0.781347 -0.246845,-0.07768 -0.467874,-0.20645 -0.730188,-0.255798 -0.586333,-0.120127 -1.17558,-0.181384 -1.763717,-0.181384 -0.865567,0 -1.674418,0.118868 -2.41794,0.419612 -0.631646,0.248264 -1.182537,0.670139 -1.632975,1.189592 -0.126362,-0.144179 -0.179754,-0.34052 -0.330213,-0.465088 -0.973567,-0.820262 -2.248986,-1.144116 -3.607015,-1.144116 -0.681784,0 -1.363973,0.09129 -2.037084,0.267167 -0.265489,0.06693 -0.483122,0.215883 -0.732772,0.310575 v -0.882633 c 1.28e-4,-0.877021 -0.710479,-1.588145 -1.5875,-1.588017 h -6.972701 c -0.877021,-1.28e-4 -1.588145,0.710996 -1.588017,1.588017 v 8.888863 c -1.28e-4,0.877021 0.710996,1.587628 1.588017,1.5875 h 7.136515 c 0.356288,-0.159416 0.641569,-0.44418 0.800985,-0.800468 0.19419,0.144015 0.323037,0.369825 0.536918,0.474389 0.651951,0.318731 1.364493,0.441317 2.093929,0.441317 0.593822,0 1.148253,-0.224405 1.697054,-0.449068 0.09405,0.127358 0.206472,0.239777 0.33383,0.33383 h 2.248441 c 0.26924,-0.146344 0.49031,-0.367414 0.636654,-0.636654 0.410218,0.193036 0.815228,0.384195 1.295011,0.502295 0.002,6.71e-4 0.0037,9e-4 0.0057,0.0015 0.681904,0.16531 1.380822,0.248047 2.087728,0.248047 0.885847,0 1.704987,-0.115357 2.457214,-0.419612 0.376189,-0.150475 0.647131,-0.470045 0.972551,-0.711068 0.157299,0.481077 0.534882,0.858143 1.015959,1.015442 h 2.413806 c 0.345552,-0.158483 0.622864,-0.435279 0.781347,-0.780831 0.158483,0.345552 0.435796,0.622348 0.781348,0.780831 h 1.812292 c -0.189621,0.556095 -0.05662,1.171739 0.345716,1.599902 0.427953,0.348706 0.916849,0.573464 1.427819,0.728638 0.50969,0.160402 1.039987,0.249597 1.570447,0.249597 0.61127,0 1.21287,-0.09181 1.77922,-0.296623 0.63924,-0.228148 1.203282,-0.633446 1.654162,-1.12913 0.49546,-0.526537 0.851982,-1.154559 1.138432,-1.870687 l 2.963126,-7.144783 c 0.43276,-1.044612 -0.334316,-2.19384 -1.465026,-2.195215 h -2.298568 c -0.64724,-3.67e-4 -1.230018,0.392198 -1.472778,0.992188 L 53.3421,88.822832 53.121442,88.271961 c -0.24152,-0.601524 -0.824062,-0.99553 -1.472262,-0.995805 h -1.537373 v -0.95343 c -9.5e-4,-0.876258 -0.711757,-1.586078 -1.588017,-1.58595 h -2.411739 c -0.177388,0.117009 -0.329734,0.268577 -0.447518,0.445451 -0.111746,-0.149083 -0.0898,-0.373112 -0.226343,-0.489892 -0.590229,-0.509589 -1.376193,-0.744141 -2.095996,-0.744141 z m 36.537304,0 c -0.73538,0 -1.544707,0.248489 -2.132687,0.781348 -0.1172,0.106209 -0.095,0.307228 -0.193786,0.437699 -0.11423,-0.169559 -0.259871,-0.315721 -0.429431,-0.429948 h -2.412256 c -0.87626,-1.28e-4 -1.587067,0.709692 -1.588017,1.58595 v 0.923975 c -0.11053,-0.0069 -0.20545,-0.08372 -0.31626,-0.08372 -0.86967,0 -1.7333,0.211744 -2.48822,0.632519 -0.003,0.0013 -0.0068,0.0028 -0.0098,0.0041 -0.52969,0.300158 -0.891157,0.805158 -1.271757,1.281059 -0.43245,-0.514862 -0.871406,-1.039097 -1.476396,-1.333768 -0.78555,-0.390554 -1.661246,-0.583944 -2.552816,-0.583944 -0.94038,0 -1.860515,0.208595 -2.675805,0.638204 -0.81279,0.420066 -1.507138,1.056288 -1.982308,1.836063 l -5.17e-4,5.17e-4 -5.17e-4,5.17e-4 v 5.17e-4 c -6.9e-4,9.81e-4 -0.0021,0.0026 -0.0031,0.0036 -1.5e-4,2.47e-4 -3.87e-4,8.18e-4 -5.17e-4,0.001 -0.47715,0.791059 -0.709001,1.715916 -0.709001,2.649967 0,0.940584 0.241501,1.870501 0.726571,2.666504 0.005,0.0085 0.0102,0.01691 0.0155,0.02532 0.49111,0.77349 1.195648,1.398275 2.015898,1.825728 0.008,0.0046 0.01545,0.0095 0.02325,0.01395 0.86203,0.431014 1.832524,0.624768 2.843754,0.624768 0.80966,0 1.577669,-0.112685 2.287199,-0.38654 0.007,-0.0032 0.0146,-0.0065 0.0217,-0.0098 0.67038,-0.270505 1.27408,-0.688286 1.7632,-1.21698 0.31634,0.330943 0.561187,0.734395 0.957047,0.965316 0.009,0.0053 0.01819,0.01038 0.02739,0.0155 0.75492,0.420776 1.61855,0.632519 2.48822,0.632519 0.59391,0 1.141659,-0.231704 1.689819,-0.443384 0.0927,0.124855 0.203295,0.235431 0.328145,0.328146 h 2.298568 c 0.34235,-0.15817 0.617493,-0.432796 0.775663,-0.775147 0.15817,0.342351 0.432797,0.616977 0.775147,0.775147 h 2.412255 c 0.65681,-0.116083 1.170664,-0.629938 1.286744,-1.286743 0.0922,0.106642 0.125934,0.251682 0.232544,0.347265 0.003,0.0033 0.007,0.0065 0.01034,0.0098 0.84442,0.742507 1.967274,1.044897 3.107304,1.044897 0.42523,0 0.844957,-0.04854 1.255737,-0.14056 0.44971,-0.09189 0.895606,-0.251356 1.300696,-0.521415 0.60396,-0.403265 0.857546,-1.164813 0.615466,-1.849499 L 88.298606,93.250518 C 88.052286,92.707853 87.52292,92.348864 86.92763,92.320859 v -0.0894 c 0.86789,-0.0063 1.569871,-0.708758 1.576131,-1.576648 v -1.790588 c 1.3e-4,-0.87702 -0.710997,-1.588145 -1.588017,-1.588017 h -0.03927 c -0.0263,-0.837797 -0.699057,-1.511099 -1.536857,-1.537374 h -2.412256 c -0.12153,0.09091 -0.229483,0.198862 -0.320393,0.320394 -0.15709,-0.498931 -0.249763,-1.041251 -0.630453,-1.366841 -0.59023,-0.509596 -1.378253,-0.744141 -2.098063,-0.744141 z m 189.007578,0 c -0.73537,0 -1.54471,0.248489 -2.13269,0.781348 -0.54843,0.497015 -0.91199,1.297775 -0.92707,2.042253 -0.17526,-0.515437 -0.60241,-0.90513 -1.13172,-1.032496 h -2.41173 c -0.77635,0.06247 -1.39274,0.678863 -1.45521,1.455209 -0.0102,-0.01048 -0.0205,-0.02081 -0.031,-0.03101 -0.68605,0 -1.32818,0.219851 -1.94768,0.478524 -0.10086,-0.140875 -0.22411,-0.264291 -0.36484,-0.365353 h -2.29702 c -0.67565,0.108917 -1.20546,0.638527 -1.31464,1.314132 -0.31951,-0.280137 -0.5507,-0.657016 -0.93328,-0.843359 -0.78555,-0.390554 -1.66124,-0.583944 -2.55282,-0.583944 -0.93958,0 -1.86102,0.207788 -2.6758,0.636653 -0.57838,0.298725 -0.98853,0.8141 -1.41025,1.306381 -0.38013,-0.480272 -0.7437,-0.987163 -1.27744,-1.28726 -0.75012,-0.434024 -1.6148,-0.655774 -2.48616,-0.655774 -0.59885,0 -1.15316,0.226637 -1.70532,0.43925 -0.0922,-0.123983 -0.2021,-0.233835 -0.32608,-0.326079 h -2.29856 c -0.70313,0.09772 -1.25595,0.650317 -1.35393,1.353406 -0.31727,-0.273474 -0.54518,-0.642356 -0.92139,-0.831991 -0.82977,-0.430508 -1.76553,-0.634586 -2.72903,-0.634586 -0.96415,0 -1.89988,0.203474 -2.73007,0.634586 -0.21764,0.110838 -0.33604,0.342531 -0.53536,0.482142 -0.14766,-0.544242 -0.57294,-0.969316 -1.11725,-1.116728 -0.68605,0 -1.32767,0.219851 -1.94717,0.478524 -0.10102,-0.140917 -0.22443,-0.264335 -0.36535,-0.365353 h -2.29857 c -0.65145,0.117868 -1.16137,0.627592 -1.2795,1.278992 -0.25878,-0.23527 -0.42506,-0.564833 -0.73019,-0.736389 -0.75012,-0.434024 -1.61532,-0.655774 -2.48667,-0.655774 -0.59932,0 -1.15229,0.226286 -1.70481,0.43925 -0.0922,-0.123983 -0.2021,-0.233835 -0.32608,-0.326079 h -2.29908 c -0.87712,-1.94e-4 -1.58822,0.7109 -1.58802,1.588017 v 9.347233 c 9.4e-4,0.876309 0.71171,1.586143 1.58802,1.585949 h 2.41432 c 0.8753,-0.0012 1.5845,-0.710646 1.58544,-1.585949 v -0.849561 c 0.1153,0.0077 0.21461,0.08785 0.33021,0.08785 0.86757,0 1.72812,-0.212821 2.4784,-0.636654 0.31166,-0.174219 0.48275,-0.509313 0.74621,-0.749825 0.11997,0.64611 0.62559,1.15153 1.27175,1.271241 h 2.41381 c 0.87692,2e-4 1.58793,-0.710581 1.58802,-1.5875 v -1.677934 c 0.10839,0.295876 0.0816,0.634639 0.24598,0.904338 0.005,0.0085 0.0103,0.01693 0.0155,0.02532 0.48673,0.766591 1.18121,1.390015 1.99058,1.812292 0.83237,0.43428 1.7723,0.638721 2.73988,0.638721 0.96612,0 1.90534,-0.203727 2.73678,-0.636654 0.27798,-0.143243 0.43245,-0.432271 0.67955,-0.62115 v 2.019515 c 9.4e-4,0.876313 0.71171,1.586149 1.58802,1.585949 h 2.41173 c 0.87631,2e-4 1.58708,-0.709636 1.58802,-1.585949 V 97.36189 c 0.11521,0.0077 0.21471,0.08785 0.33021,0.08785 0.86758,0 1.72813,-0.212821 2.47841,-0.636654 0.54672,-0.305615 0.92068,-0.822466 1.30638,-1.316198 0.43407,0.494088 0.86143,1.006579 1.45159,1.314131 0.008,0.0047 0.0155,0.0094 0.0232,0.01395 0.86203,0.431014 1.83251,0.624768 2.84375,0.624768 0.80965,0 1.5756,-0.112685 2.28514,-0.38654 0.008,-0.0032 0.0154,-0.0065 0.0232,-0.0098 0.4402,-0.177623 0.78731,-0.506528 1.15859,-0.798918 0.15181,0.520913 0.55912,0.928229 1.08003,1.080038 h 2.41174 c 0.87691,1.94e-4 1.58793,-0.710585 1.58802,-1.5875 v -3.162598 c 0,-0.04556 10e-4,-0.08268 0.003,-0.112654 0.017,-3.27e-4 0.0367,-5.17e-4 0.0599,-5.17e-4 0.045,0 0.0744,0.0014 0.0801,0.0021 0.0576,0.0064 0.11563,0.0097 0.17364,0.0098 -0.0212,0 9.2e-4,3.7e-5 0.0512,0.0078 0.0475,-0.01144 0.0944,-0.02506 0.14056,-0.04082 v 0.782898 c 0,1.175646 0.38075,2.370668 1.26348,3.162081 0.004,0.0033 0.008,0.0066 0.0119,0.0098 0.84442,0.742507 1.96521,1.044897 3.10524,1.044897 0.42458,0 0.84605,-0.04882 1.25625,-0.14056 0.32622,-0.06666 0.63519,-0.223797 0.9431,-0.378788 0.10915,0.158038 0.24607,0.294959 0.40411,0.40411 h 2.41432 c 0.71329,-0.0938 1.27438,-0.655508 1.36736,-1.368909 0.32063,0.278066 0.55337,0.647971 0.93327,0.845943 0.008,0.0045 0.0155,0.009 0.0233,0.01344 0.86203,0.431014 1.83252,0.624768 2.84375,0.624768 0.80966,0 1.57767,-0.112685 2.2872,-0.38654 0.007,-0.0032 0.0145,-0.0065 0.0217,-0.0098 0.32645,-0.131728 0.56832,-0.395911 0.85938,-0.591695 0.005,0.01697 0.01,0.03385 0.0155,0.05064 0.53051,0.318307 1.11563,0.526378 1.77146,0.687813 0.002,5.21e-4 0.004,0.0011 0.006,0.0015 0.68191,0.16531 1.38082,0.248047 2.08772,0.248047 0.88653,0 1.70452,-0.114829 2.45722,-0.419612 h 5.1e-4 5.2e-4 5.2e-4 c 0.70154,-0.280852 1.34423,-0.710441 1.81074,-1.328085 0.45333,-0.590322 0.72089,-1.355036 0.72089,-2.10168 0,-0.581807 -0.10716,-1.1852 -0.43202,-1.74408 -0.12604,-0.22011 -0.35677,-0.357394 -0.53485,-0.545186 l 0.59169,-1.335836 c 0.32762,-0.742821 0.0421,-1.613129 -0.66197,-2.017448 -0.53323,-0.306606 -1.12028,-0.495428 -1.74821,-0.613399 -0.58506,-0.119607 -1.17274,-0.181384 -1.75959,-0.181384 -0.86556,0 -1.67442,0.118868 -2.41794,0.419612 -0.63385,0.249128 -1.18761,0.671467 -1.63866,1.193726 -0.36949,-0.36362 -0.67228,-0.802097 -1.13894,-1.029394 -0.78555,-0.390554 -1.66125,-0.583944 -2.55282,-0.583944 -0.94038,0 -1.86052,0.209112 -2.67581,0.638721 -0.36503,0.188657 -0.58264,0.554341 -0.89038,0.824239 -0.0608,-0.07306 -0.12811,-0.140513 -0.20102,-0.201538 0.35781,-0.499054 0.70693,-1.052592 0.70693,-1.642277 0,-0.753001 -0.38283,-1.59206 -0.9648,-2.089795 -0.59023,-0.509589 -1.37618,-0.744141 -2.09599,-0.744141 z m -60.97457,1.144633 c -1.07756,0 -2.1043,0.214005 -3.00188,0.699182 -0.67434,0.364508 -1.17528,0.943185 -1.63298,1.543059 -0.4313,0.05474 -0.85094,0.14117 -1.24799,0.306958 -0.10102,-0.140917 -0.22443,-0.264335 -0.36535,-0.365353 h -2.2965 c -0.70293,0.09793 -1.25547,0.650479 -1.3534,1.353406 -0.31777,-0.273985 -0.54707,-0.644199 -0.92398,-0.834058 -0.82926,-0.429764 -1.76376,-0.632519 -2.72645,-0.632519 -0.96351,0 -1.90081,0.204076 -2.73058,0.634586 -0.30146,0.153522 -0.47712,0.459875 -0.74207,0.66766 -0.13676,-0.591096 -0.59844,-1.052571 -1.1896,-1.189075 h -0.0393 c -0.0261,-0.837803 -0.69907,-1.510957 -1.53686,-1.537374 h -2.41225 c -0.87712,-1.94e-4 -1.58822,0.7109 -1.58802,1.588017 v 0.533301 c -0.0255,0.02449 -0.0501,0.04983 -0.0739,0.07596 -0.0241,-0.01465 -0.0304,-0.04836 -0.0548,-0.06253 -0.8403,-0.489127 -1.81519,-0.710551 -2.81844,-0.710551 -0.97301,0 -1.9175,0.202339 -2.75952,0.628902 -0.60408,0.303252 -1.04712,0.821337 -1.48673,1.328084 -0.43864,-0.535294 -0.89664,-1.069772 -1.51928,-1.373042 -0.78554,-0.390554 -1.66124,-0.583944 -2.55282,-0.583944 -0.64727,0 -1.24089,0.2379 -1.84175,0.43925 l 0.0506,-0.119373 c 0.44864,-1.047382 -0.3194,-2.212369 -1.45882,-2.212785 h -2.49029 c -0.63631,-2.09e-4 -1.21126,0.379505 -1.46089,0.964799 l -0.98857,2.322339 -0.96067,-2.310453 c -0.24684,-0.592032 -0.82566,-0.977375 -1.46709,-0.976685 h -2.71663 c -1.1393,-5.86e-4 -1.90837,1.163491 -1.46089,2.211235 l 3.79666,8.888346 c 0.2497,0.585464 0.82492,0.965212 1.46141,0.964799 h 2.47634 c 0.63506,-2.66e-4 1.20885,-0.37894 1.45882,-0.962732 l 0.82063,-1.914095 c 0.0741,0.158598 0.0451,0.351913 0.13642,0.501778 0.005,0.0087 0.0103,0.01727 0.0155,0.02584 0.49111,0.77349 1.19565,1.398275 2.0159,1.825728 0.008,0.0047 0.0156,0.0094 0.0233,0.01395 0.86202,0.431014 1.83251,0.624768 2.84375,0.624768 0.80965,0 1.57766,-0.112685 2.2872,-0.38654 0.007,-0.0032 0.0145,-0.0065 0.0217,-0.0098 0.68445,-0.276181 1.30628,-0.697489 1.80041,-1.242301 4.9e-4,-0.02273 4.9e-4,-0.04548 0,-0.06821 0.38233,0.378616 0.7034,0.824107 1.18597,1.072286 0.003,0.0019 0.005,0.0038 0.008,0.0057 0.84244,0.427153 1.78791,0.628902 2.76158,0.628902 1.00325,0 1.97814,-0.221423 2.81844,-0.710551 0.41029,-0.238824 0.59979,-0.704 0.91415,-1.060917 0.1596,0.240927 0.2606,0.519519 0.48059,0.716752 0.003,0.0033 0.007,0.0066 0.0103,0.0098 0.84442,0.742507 1.96727,1.044897 3.1073,1.044897 0.42522,0 0.84548,-0.04854 1.25626,-0.14056 0.4497,-0.09189 0.8956,-0.251356 1.30069,-0.521415 0.0561,-0.118141 0.0974,-0.242764 0.12299,-0.371037 0.16437,0.110557 0.25731,0.30233 0.43357,0.394291 0.83237,0.43428 1.77437,0.638721 2.74195,0.638721 0.96611,0 1.90484,-0.203727 2.73627,-0.636654 0.37314,-0.192278 0.59712,-0.561014 0.91209,-0.834057 0.0973,0.704387 0.65108,1.258174 1.35547,1.355473 h 2.41225 c 0.77482,-0.06329 1.38986,-0.67832 1.45315,-1.453142 0.0633,0.774822 0.67832,1.389855 1.45314,1.453142 h 6.92205 c 0.87692,2e-4 1.58793,-0.710581 1.58802,-1.5875 v -1.994194 c -0.0914,-0.71898 -0.65806,-1.284811 -1.37718,-1.37511 0.089,-0.111992 0.2197,-0.215802 0.29869,-0.332279 l 0.002,-0.0015 c 0.29216,-0.427369 0.52668,-0.873484 0.66405,-1.377177 0.001,-0.004 0.003,-0.0079 0.004,-0.01189 0.1097,-0.41441 0.16588,-0.841233 0.16588,-1.269173 0,-0.83112 -0.25172,-1.679211 -0.74414,-2.359546 -0.46827,-0.65752 -1.13148,-1.161101 -1.8712,-1.476395 -0.74963,-0.319511 -1.57003,-0.457337 -2.42569,-0.457337 z M 43.344245,86.559454 c 0.02208,0.02693 0.113172,0.230537 0.113172,0.259416 0,0.026 -0.07044,0.176007 -0.101286,0.228926 -0.05247,-0.08443 -0.129191,-0.241282 -0.129191,-0.265616 0,0.0047 0.0776,-0.190348 0.0956,-0.207223 h 0.0021 c 0.0062,-0.0058 0.01301,-0.0108 0.01964,-0.0155 z m 36.536787,0 c 0.022,0.02677 0.113688,0.230523 0.113688,0.259416 0,0.02592 -0.06874,0.175454 -0.09973,0.228926 -0.0525,-0.0842 -0.128675,-0.241224 -0.128675,-0.265616 0,0.0047 0.0776,-0.190348 0.0956,-0.207223 0.006,-0.0058 0.01252,-0.01078 0.01912,-0.0155 z m 189.008098,0 c 0.022,0.02687 0.1111,0.230532 0.1111,0.259416 0,0.02599 -0.0684,0.175934 -0.0992,0.228926 -0.0525,-0.08443 -0.12919,-0.241282 -0.12919,-0.265616 0,0.0047 0.0776,-0.190348 0.0956,-0.207223 h 0.002 c 0.006,-0.0058 0.013,-0.01079 0.0196,-0.0155 z m -3.02617,0.33228 c 0.003,0.0061 0.004,0.01249 0.005,0.01912 -0.002,-0.0064 -0.003,-0.01276 -0.005,-0.01912 z M 96.63143,87.163035 c -0.685894,9e-6 -1.32623,0.219964 -1.945618,0.478524 -0.10099,-0.140865 -0.223975,-0.264361 -0.364835,-0.365353 h -2.299085 c -0.87702,-1.28e-4 -1.588146,0.710997 -1.588016,1.588017 v 6.882784 c -1.3e-4,0.877021 0.710996,1.587628 1.588016,1.5875 h 2.412256 c 0.81556,-0.04008 1.467839,-0.69184 1.507919,-1.507402 0.36094,0.489172 0.809627,0.920276 1.343587,1.181323 0.65195,0.318731 1.364499,0.441317 2.093929,0.441317 0.59382,0 1.148257,-0.224405 1.697057,-0.449068 0.0941,0.127358 0.20647,0.239777 0.33383,0.33383 h 2.24844 c 0.33492,-0.157377 0.60433,-0.426793 0.76171,-0.761711 0.15738,0.334918 0.42679,0.604334 0.76171,0.761711 h 2.41381 c 0.63212,-0.124994 1.12604,-0.619293 1.25005,-1.251603 0.12429,0.632872 0.61925,1.127315 1.25212,1.251603 h 2.41174 c 0.0884,-0.07125 0.16903,-0.151855 0.24029,-0.240296 -0.18816,0.574541 -0.0337,1.206535 0.39843,1.629358 0.60372,0.422605 1.29442,0.71852 2.03915,0.910022 0.002,6.71e-4 0.004,0.0014 0.006,0.0021 0.73537,0.186431 1.49849,0.276986 2.281,0.276986 1.54456,0 2.97907,-0.394649 4.0411,-1.34152 0.75138,-0.669905 1.1229,-1.609193 1.34203,-2.615344 0.32366,0.282349 0.56067,0.655394 0.94516,0.855761 0.008,0.0046 0.0155,0.009 0.0233,0.01344 0.86202,0.431014 1.83251,0.624768 2.84375,0.624768 0.80965,0 1.5756,-0.112685 2.28513,-0.38654 0.008,-0.0032 0.0149,-0.0065 0.0227,-0.0098 0.32646,-0.131728 0.56884,-0.395911 0.8599,-0.591695 0.005,0.01701 0.01,0.0338 0.0155,0.05064 0.53051,0.318307 1.11564,0.526378 1.77147,0.687813 l 5.2e-4,5.17e-4 h 5.1e-4 c 4.1e-4,1.29e-4 0.002,7.72e-4 0.003,0.001 h 5.1e-4 c 0.68191,0.16531 1.3834,0.248047 2.09031,0.248047 0.88584,0 1.70241,-0.115359 2.45463,-0.419612 0.70127,-0.280505 1.3461,-0.709154 1.81281,-1.326018 0.45403,-0.590519 0.72244,-1.356481 0.72244,-2.103747 0,-0.581807 -0.10664,-1.1852 -0.4315,-1.74408 -0.12604,-0.22011 -0.35728,-0.357394 -0.53537,-0.545186 l 0.59015,-1.335836 c 0.328,-0.742404 0.043,-1.612527 -0.66043,-2.017448 -0.53323,-0.306606 -1.11976,-0.495428 -1.74769,-0.613399 -0.58507,-0.119611 -1.17479,-0.181384 -1.76165,-0.181384 -0.86556,0 -1.67287,0.11887 -2.41639,0.419612 -0.63341,0.248954 -1.18774,0.672032 -1.63866,1.193726 -0.36949,-0.36362 -0.67177,-0.802097 -1.13843,-1.029394 -0.78555,-0.390554 -1.66124,-0.583944 -2.55282,-0.583944 -0.94038,0 -1.86051,0.209112 -2.6758,0.638721 -0.36211,0.187146 -0.57685,0.550888 -0.88264,0.818037 -0.1008,-0.696127 -0.64797,-1.242787 -1.3441,-1.343587 h -2.29857 c -0.1282,0.0945 -0.2414,0.207703 -0.3359,0.335897 -0.58227,-0.244307 -1.1856,-0.449068 -1.82262,-0.449068 -0.84479,0 -1.68376,0.197265 -2.42776,0.587561 -0.003,0.0013 -0.007,0.0028 -0.01,0.0041 -0.55963,0.29847 -0.9699,0.795536 -1.37304,1.285193 -0.37721,-0.554354 -0.8247,-1.081836 -1.42782,-1.379244 -0.66379,-0.33526 -1.40598,-0.497644 -2.15233,-0.497644 -0.64155,0 -1.25096,0.214512 -1.83968,0.458887 -0.0967,-0.132393 -0.21332,-0.249022 -0.34571,-0.345716 h -2.29909 c -0.64271,0.121477 -1.14506,0.624728 -1.26555,1.267623 -0.0702,-0.06861 -0.0915,-0.173328 -0.16795,-0.236678 -0.97356,-0.820262 -2.2495,-1.144116 -3.60753,-1.144116 -0.681784,0 -1.363978,0.09129 -2.037088,0.267167 -0.3064,0.07725 -0.560407,0.243083 -0.845427,0.357601 C 97.1128,87.524234 96.895468,87.307696 96.63146,87.16302 Z m 48.16192,0 c -0.6805,0 -1.36314,0.09194 -2.03502,0.267167 -0.67656,0.170392 -1.30721,0.423975 -1.86707,0.789099 -0.67396,0.439765 -0.91262,1.31461 -0.55501,2.035535 l 0.57826,1.16582 c -0.12899,0.128538 -0.32277,0.162405 -0.42943,0.314193 l -0.006,0.0083 c -0.40807,0.587622 -0.60151,1.309894 -0.60151,1.997811 0,0.656887 0.17655,1.330375 0.52141,1.900142 0.006,0.0092 0.0116,0.01834 0.0176,0.02739 0.36855,0.583531 0.91485,1.04421 1.51981,1.339969 0.65195,0.318731 1.36604,0.441317 2.09548,0.441317 0.59429,0 1.14788,-0.224007 1.69705,-0.449068 0.0941,0.127359 0.20699,0.239777 0.33435,0.33383 h 2.24792 c 0.26924,-0.146344 0.49031,-0.367414 0.63665,-0.636654 0.40989,0.192756 0.8157,0.384308 1.29502,0.502295 0.002,6.71e-4 0.004,9e-4 0.006,0.0015 0.68191,0.16531 1.38134,0.248047 2.08824,0.248047 0.88653,0 1.704,-0.114829 2.4567,-0.419612 h 5.2e-4 5.1e-4 5.2e-4 5.2e-4 c 0.70069,-0.280511 1.34436,-0.710103 1.81074,-1.326534 0.45403,-0.590519 0.72244,-1.355965 0.72244,-2.103231 0,-0.581807 -0.10664,-1.1852 -0.4315,-1.74408 -0.12593,-0.219929 -0.35747,-0.357515 -0.53537,-0.545186 l 0.59014,-1.335836 c 0.32767,-0.742891 0.0421,-1.613167 -0.66197,-2.017448 -0.5327,-0.306299 -1.11687,-0.495402 -1.74408,-0.613399 -0.58634,-0.120127 -1.17559,-0.181384 -1.76372,-0.181384 -0.86557,0 -1.67442,0.118868 -2.41794,0.419612 -0.6325,0.248599 -1.18436,0.671119 -1.63504,1.191659 -0.12719,-0.145227 -0.18013,-0.343367 -0.33176,-0.468705 -0.97314,-0.818156 -2.24746,-1.142566 -3.60392,-1.142566 z m -25.47235,0.552421 0.0191,0.01085 c -0.004,-0.0012 -0.007,-0.0011 -0.0114,-0.0031 h -5.1e-4 l -5.2e-4,-5.16e-4 c -0.002,-0.0017 -0.005,-0.005 -0.007,-0.0067 z m 90.22601,0.0155 0.0207,0.01654 c -0.005,-0.0016 -0.0115,-3.5e-4 -0.0165,-0.0047 l -5.2e-4,-5.16e-4 c -1e-4,-1.17e-4 -8.2e-4,-0.0012 -0.001,-0.0016 -8.8e-4,-0.0024 -0.001,-0.0066 -0.003,-0.0093 z m -102.1829,0.0015 c -0.002,0.0022 -0.005,0.0062 -0.008,0.0083 h -5.2e-4 l -5.2e-4,5.17e-4 h -5.1e-4 c -0.002,6.38e-4 -0.005,1.02e-4 -0.007,5.17e-4 z m 120.01799,0.02429 c -0.001,0.0012 -0.002,0.0035 -0.003,0.0047 l -5.2e-4,5.17e-4 h -5.1e-4 l -5.2e-4,5.16e-4 c -0.003,0.0016 -0.006,0.0017 -0.009,0.0026 z m 30.9764,0 c -10e-4,0.0012 -0.002,0.0035 -0.003,0.0047 l -5.1e-4,5.17e-4 h -5.2e-4 l -5.2e-4,5.16e-4 c -0.003,0.0016 -0.006,0.0017 -0.009,0.0026 z m -164.164647,10e-4 c -0.0012,0.0015 -0.0021,0.003 -0.0036,0.0041 l -5.17e-4,5.16e-4 c -0.003,0.0014 -0.0048,0.0014 -0.0078,0.0021 z m 107.343827,0 c -0.001,0.0015 -0.002,0.003 -0.004,0.0041 l -5.2e-4,5.16e-4 c -0.003,0.0014 -0.005,0.0014 -0.008,0.0021 z m -31.34847,0.03824 c -6.8e-4,6.52e-4 -0.002,0.0022 -0.003,0.0031 v 5.16e-4 l -5.2e-4,5.17e-4 h -5.1e-4 v 5.17e-4 h -5.2e-4 l -5.2e-4,5.17e-4 -5.1e-4,5.17e-4 h -5.2e-4 -5.2e-4 -5.1e-4 c -0.002,4.34e-4 -0.005,5.23e-4 -0.007,0.001 z m -71.865377,1.440222 c -0.005,0.0025 -0.01,0.0071 -0.01499,0.0088 -0.0044,0.0014 -0.0085,1.66e-4 -0.01292,5.17e-4 z m 44.652567,0 c -0.005,0.0025 -0.01,0.0071 -0.015,0.0088 -0.004,0.0014 -0.009,1.66e-4 -0.0134,5.17e-4 z m -114.649325,10e-4 c -0.0041,0.0025 -0.0074,0.0063 -0.01189,0.0078 -0.0043,0.0014 -0.0089,1.66e-4 -0.01344,5.17e-4 z m 99.645595,0.04393 0.0186,0.01085 c -0.003,-8.63e-4 -0.007,-6.93e-4 -0.0103,-0.0026 h -5.2e-4 -5.2e-4 v -5.17e-4 h -5.1e-4 c -0.003,-0.0021 -0.005,-0.0055 -0.007,-0.0078 z m -61.407621,5.17e-4 0.01757,0.01033 c -0.003,-8.36e-4 -0.0058,-7.31e-4 -0.0098,-0.0026 h -5.17e-4 -5.17e-4 v -5.17e-4 h -5.17e-4 c -0.002,-0.0019 -0.0042,-0.005 -0.0062,-0.0072 z m 107.852841,5.16e-4 0.0165,0.0098 c -0.003,-8.36e-4 -0.007,-7.31e-4 -0.0103,-0.0026 h -5.2e-4 l -5.2e-4,-5.17e-4 c -0.002,-0.0017 -0.003,-0.0046 -0.005,-0.0067 z m -60.9048,0.0078 0.008,0.0155 c -0.001,-8.53e-4 -0.003,-0.0022 -0.004,-0.0031 h -5.2e-4 l -5.1e-4,-5.17e-4 v -5.16e-4 c -0.002,-0.0034 -0.002,-0.0077 -0.003,-0.01137 z m 82.38049,0.193786 0.0186,0.01137 c -0.003,-5.7e-4 -0.006,-3.93e-4 -0.009,-0.0021 -1.2e-4,-7.5e-5 -6.9e-4,-8.19e-4 -0.001,-0.001 h -5.2e-4 -5.1e-4 c -0.003,-0.0021 -0.005,-0.006 -0.008,-0.0083 z m -74.94839,0.05633 0.005,0.01292 c -6.8e-4,-4.79e-4 -0.002,-0.0015 -0.003,-0.0021 l -5.2e-4,-5.17e-4 v -5.17e-4 l -5.2e-4,-5.17e-4 v -5.16e-4 c -8.5e-4,-0.0026 -8.5e-4,-0.0058 -0.001,-0.0088 z m 61.8231,0.0026 0.0279,0.01705 c -0.006,-0.002 -0.0128,-0.0013 -0.0181,-0.0047 -3.1e-4,-2.1e-4 -0.001,-0.0013 -0.002,-0.0016 -0.003,-0.003 -0.005,-0.0074 -0.008,-0.01085 z m -150.835234,0.163815 0.03721,0.03256 c -0.008,-0.0048 -0.01682,-0.0051 -0.02429,-0.01189 -0.0061,-0.0054 -0.0079,-0.01435 -0.01292,-0.02067 z m 69.994694,5.17e-4 0.0398,0.03411 c -0.009,-0.0067 -0.019,-0.0063 -0.0274,-0.01395 -0.006,-0.0053 -0.008,-0.01389 -0.0124,-0.02015 z m 44.65102,5.16e-4 0.0372,0.03101 c -0.008,-0.0052 -0.0173,-0.0062 -0.0253,-0.01344 -0.006,-0.0047 -0.008,-0.01194 -0.0119,-0.01757 z m -35.61747,0.355534 0.0367,0.04031 c -0.007,-0.0054 -0.0168,-0.0082 -0.0227,-0.01499 -0.007,-0.008 -0.008,-0.0172 -0.014,-0.02532 z m 99.33916,0.348299 h 5.1e-4 l -0.0155,0.05633 c 0.003,-0.01134 0.003,-0.02579 0.006,-0.03721 0.002,-0.008 0.006,-0.01263 0.009,-0.01912 z m -68.05269,0.03204 c -0.002,0.0019 -0.005,0.005 -0.007,0.0062 -0.004,0.0014 -0.008,6.04e-4 -0.0124,0.001 z m -79.89435,0.02739 c -10e-4,0.004 -0.0021,0.0086 -0.0041,0.0124 v 5.16e-4 l -5.17e-4,5.17e-4 c -1.25e-4,2.88e-4 -8.79e-4,0.0013 -10e-4,0.0015 -0.0011,0.0016 -0.0021,0.0034 -0.0036,0.0052 z m 61.40814,0 c -0.001,0.004 -0.002,0.0086 -0.004,0.0124 v 5.16e-4 5.17e-4 c -1.6e-4,2.92e-4 -8.6e-4,0.0012 -0.001,0.0015 v 5.17e-4 l -5.2e-4,5.17e-4 c -0.001,0.0012 -0.003,0.0027 -0.004,0.0041 z m 46.44264,0.0021 c -9.4e-4,0.0034 -10e-4,0.0071 -0.003,0.01034 l -5.2e-4,5.16e-4 v 5.17e-4 c -1.6e-4,2.92e-4 -8.6e-4,0.0012 -0.001,0.0015 l -5.2e-4,5.17e-4 -5.2e-4,5.17e-4 c -0.001,0.0012 -0.002,0.0027 -0.004,0.0041 z m -99.547928,0.195337 c -6.7e-4,0.0026 -5.33e-4,0.0062 -0.001,0.0088 v 5.17e-4 c -9e-5,2.31e-4 -3.97e-4,8.4e-4 -5.17e-4,10e-4 l -5.17e-4,5.17e-4 -5.17e-4,5.17e-4 c -0.002,0.0021 -0.0042,0.0036 -0.0062,0.0057 z m 126.363858,0 h 5.2e-4 l 0.008,0.01602 c -0.002,-0.0018 -0.005,-0.0033 -0.007,-0.0052 v -5.17e-4 c -1.2e-4,-2.31e-4 -4.3e-4,-0.0014 -5.2e-4,-0.0016 l -5.1e-4,-5.17e-4 c -4.8e-4,-0.0024 -2e-5,-0.0058 -5.2e-4,-0.0083 z m -41.27448,0.01602 0.0501,0.02945 c -0.0119,-0.0064 -0.0262,-0.0088 -0.0377,-0.01602 -0.005,-0.0032 -0.008,-0.0093 -0.0124,-0.01344 z m -18.61643,0.001 0.045,0.02687 c -0.0107,-0.0047 -0.023,-0.0061 -0.0331,-0.0124 -0.006,-0.0032 -0.008,-0.0098 -0.0119,-0.01447 z m 68.84954,0.106454 -0.62064,0.579809 c 0.0921,-0.138615 0.16188,-0.290852 0.20671,-0.451135 v -0.02119 c 0.14219,-0.017 0.28143,-0.05315 0.41393,-0.107487 z m 3.88503,0.553454 -0.0264,0.04031 c 0.004,-0.007 0.007,-0.01673 0.0109,-0.02325 0.004,-0.0066 0.0106,-0.01104 0.0155,-0.01705 z m -167.614568,0.502812 0.0088,0.01499 c -0.0018,-0.0017 -0.0054,-0.0043 -0.0072,-0.0062 l -5.17e-4,-5.17e-4 v -5.16e-4 c -8.7e-5,-1.98e-4 -4.51e-4,-0.0013 -5.17e-4,-0.0016 v -5.17e-4 c -2.43e-4,-0.0015 -2.77e-4,-0.004 -5.16e-4,-0.0057 z m 162.098108,0.467672 -0.74517,0.696598 c -0.11131,0.164116 -0.19088,0.347632 -0.23461,0.541052 v -0.968416 c 0,-0.04556 0.001,-0.0832 0.003,-0.113171 0.017,-3.27e-4 0.0367,-5.17e-4 0.0599,-5.17e-4 0.045,0 0.0744,0.0014 0.0801,0.0021 0.0578,0.0065 0.11596,0.0097 0.17415,0.0098 -0.0212,0 8.8e-4,8.5e-5 0.0506,0.0078 0.21374,-0.01649 0.42178,-0.07605 0.61185,-0.175183 z m -15.49518,0.09147 c 0.0179,0.0022 0.056,0.03166 0.078,0.03514 -0.0881,0.0063 -0.17562,0.01996 -0.26149,0.04082 0.0787,-0.05572 0.18533,-0.07353 0.18345,-0.07596 z m 14.4384,0.06873 -5.2e-4,5.16e-4 -5.1e-4,5.17e-4 h -5.2e-4 c -0.004,0.0019 -0.009,0.0023 -0.0108,0.0021 h -5.2e-4 v -5.16e-4 h 5.2e-4 l 5.1e-4,-5.17e-4 h 5.2e-4 c 0.002,-5.51e-4 0.005,-0.0013 0.0114,-0.0021 z m 56.8203,0 -5.2e-4,5.16e-4 -5.1e-4,5.17e-4 h -5.2e-4 c -0.003,0.0016 -0.008,0.0021 -0.0103,0.0021 h -5.2e-4 -5.2e-4 v -5.16e-4 h 5.2e-4 v -5.17e-4 h 5.2e-4 5.1e-4 c 0.002,-5.47e-4 0.005,-0.0013 0.0114,-0.0021 z m -12.26695,2.496488 -0.007,0.01137 c 2.7e-4,-0.0016 1.9e-4,-0.0046 5.1e-4,-0.0062 l 5.2e-4,-5.17e-4 5.2e-4,-5.17e-4 5.1e-4,-5.17e-4 5.2e-4,-5.16e-4 5.2e-4,-5.17e-4 5.1e-4,-5.17e-4 h 5.2e-4 c 6.9e-4,-4.87e-4 0.002,-0.0015 0.003,-0.0021 z m -51.93585,0.143144 c 4.1e-4,-1.16e-4 0.001,1e-4 0.002,0 h 5.2e-4 c 2.5e-4,8e-6 7.8e-4,-2.2e-5 0.001,0 l -0.016,0.01085 c 0.002,-0.0022 0.005,-0.0062 0.007,-0.0083 h 5.2e-4 l 5.2e-4,-5.17e-4 h 5.1e-4 v -5.17e-4 h 5.2e-4 5.2e-4 c 0.001,-5.13e-4 0.002,-0.0012 0.004,-0.0015 z m -156.537722,0.28112 c 4.72e-4,-7.6e-5 10e-4,1.37e-4 0.0016,0 l -0.02532,0.01447 c 0.0044,-0.0035 0.0091,-0.0095 0.01344,-0.01189 0.0046,-0.0025 0.007,-0.0021 0.01034,-0.0026 z m 96.030832,0 -0.0274,0.01499 c 0.004,-0.0032 0.008,-0.0098 0.0114,-0.0124 0.007,-0.0037 0.0103,-9.39e-4 0.016,-0.0026 z m 148.5904,0 h 5.2e-4 l -0.0238,0.01447 c 0.004,-0.0035 0.009,-0.0095 0.0134,-0.01189 0.005,-0.0024 0.007,-0.0022 0.01,-0.0026 z m -129.98121,5.16e-4 h 5.2e-4 5.2e-4 5.1e-4 c 2.9e-4,1.5e-5 6.1e-4,1.5e-5 0.001,0 0.001,-1.19e-4 0.003,1.35e-4 0.005,0 l -0.0243,0.01395 c 0.004,-0.0035 0.009,-0.0095 0.0129,-0.01189 0.001,-7.22e-4 0.002,-0.0017 0.004,-0.0021 z m -112.040698,0.30024 -0.01344,0.01705 c 1.07e-4,-2.31e-4 4.29e-4,-0.0013 5.17e-4,-0.0016 6.47e-4,-0.0022 0.0013,-0.0056 0.0021,-0.0078 v -5.17e-4 -5.17e-4 l 5.17e-4,-5.16e-4 5.17e-4,-5.17e-4 h 5.16e-4 v -5.17e-4 l 5.17e-4,-5.17e-4 h 5.17e-4 l 5.17e-4,-5.17e-4 c 0.0018,-0.0011 0.0048,-0.0026 0.0067,-0.0036 3.09e-4,-1.9e-4 7.46e-4,-3.04e-4 0.001,-5.17e-4 z m 8.061523,2.087728 c 0.006,0.0014 0.01229,4.21e-4 0.01809,0.0026 0.005,0.0018 0.009,0.0063 0.01344,0.0088 z m 47.428112,2.037602 c -0.73538,0 -1.544707,0.248495 -2.132687,0.781345 -0.56023,0.50771 -0.927592,1.33193 -0.927592,2.0898 0,0.16577 0.169739,0.28915 0.203089,0.45734 h -1.207162 c -0.64787,0.0152 -1.221277,0.42268 -1.449007,1.02939 -0.22559,-0.60156 -0.791394,-1.00796 -1.433504,-1.02939 h -2.056722 c -0.64545,0.0161 -1.21693,0.42137 -1.44539,1.02526 -0.22575,-0.59747 -0.787502,-1.00137 -1.425752,-1.02526 h -2.285132 c -1.09798,-5.1e-4 -1.864943,1.08665 -1.496033,2.1208 l 2.451013,6.88278 c 0.22544,0.6326 0.824463,1.05496 1.496033,1.05472 h 2.335775 c 0.58154,-0.0439 1.092271,-0.40288 1.330151,-0.93535 0.23491,0.52725 0.737541,0.88527 1.312581,0.93535 h 2.335775 c 0.67157,2.3e-4 1.271109,-0.42212 1.496549,-1.05472 l 0.167949,-0.46871 c 0.0328,0.82739 0.696031,1.49059 1.523421,1.52343 h 2.413806 c 0.65547,-0.11657 1.168633,-0.62973 1.285193,-1.2852 0.0919,0.10626 0.126269,0.25045 0.232539,0.34572 0.004,0.003 0.008,0.007 0.0114,0.01 0.84442,0.7425 1.96573,1.04489 3.10576,1.04489 0.42458,0 0.84553,-0.0488 1.25573,-0.14056 0.32622,-0.0667 0.63571,-0.22379 0.94362,-0.37878 0.10919,0.15812 0.24599,0.29492 0.40411,0.40411 h 2.4138 c 0.63212,-0.125 1.12604,-0.6193 1.25005,-1.25161 0.12429,0.63288 0.61924,1.12732 1.25212,1.25161 h 2.41226 c 0.87702,1.2e-4 1.58815,-0.71048 1.58802,-1.5875 v -3.93775 c 0,-0.89672 -0.15867,-1.75203 -0.58601,-2.51147 -0.38216,-0.69263 -0.97992,-1.28424 -1.69551,-1.63711 -0.66337,-0.33468 -1.40661,-0.49765 -2.15232,-0.49765 -0.16828,0 -0.31549,0.10443 -0.48266,0.12093 v -0.96118 c -9.5e-4,-0.8755 -0.71045,-1.58501 -1.58595,-1.58595 h -2.4138 c -0.87626,-1.3e-4 -1.58707,0.70969 -1.58802,1.58595 v 0.81287 c -0.0841,-0.73361 -0.6627,-1.31271 -1.3963,-1.39682 h -2.41225 c -0.12236,0.0914 -0.23058,0.2001 -0.32195,0.32246 -0.15695,-0.49958 -0.249817,-1.04293 -0.630967,-1.36891 -0.59023,-0.50958 -1.376196,-0.744138 -2.095996,-0.744138 z m 90.957233,0 c -0.73538,0 -1.5447,0.248495 -2.13268,0.781345 -0.11949,0.10829 -0.0992,0.31202 -0.19948,0.44546 -0.11573,-0.17312 -0.26407,-0.32197 -0.43718,-0.4377 h -2.41225 c -0.87626,-1.3e-4 -1.58707,0.70969 -1.58802,1.58595 v 1.25005 c -0.22202,-0.0663 -0.41787,-0.18439 -0.65216,-0.22841 -0.58508,-0.11961 -1.1748,-0.18139 -1.76165,-0.18139 -0.86557,0 -1.67287,0.11887 -2.41639,0.41962 -0.70421,0.27678 -1.35648,0.71017 -1.82211,1.32601 -6.7e-4,0.002 -0.001,0.004 -0.002,0.006 -0.45212,0.60282 -0.69919,1.37524 -0.69919,2.1208 0,0.58503 0.10616,1.19142 0.42168,1.74821 0.0536,0.0945 0.16152,0.14847 0.2248,0.23823 l -0.65216,1.49035 c -0.32154,0.73189 -0.0489,1.58858 0.63665,1.99987 0.53052,0.31831 1.11564,0.52638 1.77147,0.68782 h 5.2e-4 l 5.1e-4,5.1e-4 c 6.7e-4,2.6e-4 0.002,7.6e-4 0.003,10e-4 h 5.2e-4 5.1e-4 c 0.68191,0.16531 1.38289,0.24804 2.0898,0.24804 0.88584,0 1.70291,-0.11536 2.45514,-0.41961 0.37655,-0.15062 0.64689,-0.47178 0.97255,-0.71313 0.15717,0.48227 0.53524,0.86085 1.01751,1.01802 h 2.41226 c 0.34555,-0.15848 0.62287,-0.43579 0.78135,-0.78134 0.15848,0.34555 0.43528,0.62286 0.78083,0.78134 h 2.41225 c 0.66083,-0.11462 1.17833,-0.63263 1.29295,-1.29346 0.26349,0.24521 0.44051,0.57852 0.75189,0.76016 0.009,0.005 0.0183,0.0104 0.0274,0.0155 0.75493,0.42077 1.61855,0.63303 2.48822,0.63303 0.59455,0 1.14271,-0.23121 1.69137,-0.44338 0.0927,0.12485 0.20328,0.23543 0.32814,0.32814 h 2.29702 c 0.70991,-0.0949 1.26832,-0.65383 1.36322,-1.36374 0.31868,0.27535 0.54909,0.64382 0.92605,0.84026 0.008,0.005 0.0168,0.009 0.0253,0.0134 0.86202,0.43101 1.83045,0.62528 2.84168,0.62528 0.80965,0 1.57767,-0.1132 2.2872,-0.38706 0.007,-0.003 0.0141,-0.007 0.0212,-0.01 0.43987,-0.1775 0.78753,-0.50683 1.15859,-0.79892 0.15181,0.52094 0.55909,0.92823 1.08003,1.08004 h 2.41381 c 0.87702,1.2e-4 1.58815,-0.71048 1.58802,-1.5875 v -3.16208 c 0,-0.0456 7.8e-4,-0.0832 0.002,-0.11318 0.017,-3.2e-4 0.0372,-5.1e-4 0.0605,-5.1e-4 0.045,0 0.0724,0.001 0.078,0.002 0.0584,0.007 0.11697,0.01 0.1757,0.01 -0.0212,0 8.9e-4,9e-5 0.0506,0.008 0.96183,0.14738 1.8289,-0.59687 1.82831,-1.56993 v -2.17196 c -9.5e-4,-0.87549 -0.71046,-1.58499 -1.58595,-1.58595 -0.68605,0 -1.32767,0.21986 -1.94717,0.47853 -0.10099,-0.14087 -0.22449,-0.26436 -0.36535,-0.36535 h -2.29857 c -0.67567,0.10903 -1.20561,0.63897 -1.31464,1.31464 -0.31938,-0.27994 -0.55143,-0.65763 -0.9338,-0.84387 -0.78555,-0.39056 -1.66124,-0.58395 -2.55281,-0.58395 -0.93958,0 -1.85897,0.2078 -2.67374,0.63666 -0.26319,0.13593 -0.40557,0.41664 -0.64027,0.59583 v -2.07223 c -9.5e-4,-0.87626 -0.71176,-1.58608 -1.58802,-1.58595 h -2.41226 c -0.87626,-1.3e-4 -1.58706,0.70969 -1.58801,1.58595 v 0.92346 c -0.11053,-0.007 -0.20545,-0.0837 -0.31626,-0.0837 -0.86967,0 -1.73329,0.2102 -2.48822,0.63097 -0.003,0.002 -0.007,0.004 -0.0103,0.006 -0.31935,0.18096 -0.49943,0.52184 -0.76791,0.77153 -0.0456,-0.052 -0.0943,-0.10118 -0.14624,-0.14676 0.3578,-0.49906 0.70693,-1.0526 0.70693,-1.64228 0,-0.753 -0.38282,-1.59206 -0.9648,-2.0898 -0.59022,-0.50958 -1.37619,-0.744138 -2.09599,-0.744138 z m -58.30496,0.789105 c -0.87626,-1.3e-4 -1.58655,0.70969 -1.5875,1.58595 v 9.42423 c -1.3e-4,0.87702 0.71048,1.58762 1.5875,1.5875 h 2.41225 c 0.63288,-0.12429 1.12783,-0.61873 1.25212,-1.25161 0.12401,0.63231 0.61793,1.12661 1.25005,1.25161 h 2.41381 c 0.42208,-0.16166 0.75547,-0.49535 0.91622,-0.91778 0.23435,0.19144 0.40463,0.46108 0.6718,0.5917 0.65195,0.31873 1.36449,0.44131 2.09393,0.44131 0.59446,0 1.14982,-0.22386 1.69912,-0.44906 0.094,0.12735 0.20647,0.23977 0.33383,0.33383 h 2.24792 c 0.33492,-0.15738 0.60433,-0.4268 0.76171,-0.76171 0.15738,0.33491 0.42679,0.60433 0.76171,0.76171 h 2.41226 c 0.63212,-0.125 1.12604,-0.6193 1.25005,-1.25161 0.12429,0.63287 0.61925,1.12732 1.25212,1.25161 h 2.41381 c 0.67296,-0.11008 1.20043,-0.63756 1.31051,-1.31052 0.26852,0.25249 0.45268,0.59174 0.77153,0.77773 0.008,0.005 0.0168,0.0104 0.0253,0.0155 0.75492,0.42077 1.61856,0.63251 2.48822,0.63251 0.5941,0 1.14359,-0.23156 1.69189,-0.44338 0.0927,0.12486 0.20328,0.23543 0.32814,0.32815 h 1.68517 c -0.18962,0.55609 -0.0566,1.17174 0.34572,1.5999 0.42749,0.34833 0.91538,0.57347 1.42575,0.72864 0.51083,0.16114 1.04077,0.24959 1.57251,0.24959 0.61127,0 1.21287,-0.0918 1.77922,-0.29662 0.63924,-0.22815 1.20329,-0.63345 1.65417,-1.12913 0.49546,-0.52654 0.85249,-1.15508 1.13894,-1.8712 l 2.96468,-7.14427 c 0.43308,-1.04538 -0.33504,-2.19523 -1.46658,-2.19521 h -2.29908 c -0.64724,-3.7e-4 -1.23003,0.39219 -1.47278,0.99218 l -0.22427,0.55449 -0.22066,-0.55087 c -0.24152,-0.60152 -0.82458,-0.99553 -1.47278,-0.9958 h -1.52342 v -0.95343 c -9.5e-4,-0.87626 -0.71176,-1.58608 -1.58802,-1.58595 h -2.4138 c -0.8755,9.4e-4 -1.585,0.71045 -1.58595,1.58595 v 0.92397 c -0.11116,-0.007 -0.2074,-0.0837 -0.31885,-0.0837 -0.86966,0 -1.7333,0.20968 -2.48822,0.63046 -0.003,0.002 -0.007,0.004 -0.01,0.006 -0.53982,0.3059 -0.91255,0.81707 -1.29707,1.30483 -0.38073,-0.58801 -0.86311,-1.13275 -1.49397,-1.44384 -0.66336,-0.33468 -1.40661,-0.49765 -2.15232,-0.49765 -0.64091,0 -1.2499,0.21501 -1.83813,0.45889 -0.0967,-0.13239 -0.21333,-0.24902 -0.34572,-0.34571 h -2.29857 c -0.64347,0.12075 -1.14686,0.62415 -1.26762,1.26762 -0.0702,-0.0686 -0.0915,-0.17333 -0.16795,-0.23668 -0.97357,-0.82026 -2.24951,-1.14412 -3.60753,-1.14412 -0.68179,0 -1.36397,0.0913 -2.03708,0.26717 -0.67588,0.17039 -1.30564,0.4243 -1.86501,0.7891 -0.0729,0.15866 -0.11928,0.3286 -0.13694,0.5023 -0.33811,-0.39176 -0.63412,-0.83236 -1.09761,-1.06092 -0.66379,-0.33526 -1.40598,-0.49765 -2.15232,-0.49765 -0.16828,0 -0.31497,0.10443 -0.48214,0.12093 v -0.96118 c -9.5e-4,-0.87626 -0.71176,-1.58608 -1.58802,-1.58595 z m 87.12129,0.5333 c -0.92846,1.2e-4 -1.65848,0.79346 -1.58182,1.71875 l 0.46871,5.65031 c 0.0738,0.084 0.1562,0.16021 0.24598,0.22686 -0.37446,0.49795 -0.73432,1.06328 -0.73432,1.66191 0,0.75786 0.35598,1.56228 0.89038,2.07998 0.56771,0.54997 1.39315,0.8418 2.14457,0.8418 0.74742,0 1.57687,-0.29688 2.14096,-0.85524 0.52853,-0.51802 0.88263,-1.31366 0.88263,-2.06654 0,-0.59778 -0.35874,-1.16218 -0.73225,-1.65985 0.089,-0.0661 0.1706,-0.1416 0.24391,-0.22479 l 0.48266,-5.6503 c 0.0791,-0.92678 -0.65218,-1.72296 -1.58233,-1.72289 z m -28.81684,1.28932 c 0.0221,0.0269 0.11368,0.23054 0.11368,0.25942 0,0.0257 -0.0683,0.17216 -0.0997,0.22686 -0.0524,-0.085 -0.12868,-0.23936 -0.12868,-0.26355 0,0.005 0.0776,-0.19035 0.0956,-0.20722 0.006,-0.006 0.0125,-0.0108 0.0191,-0.0155 z m -67.04294,0.60358 c -0.68161,5e-5 -1.36363,0.0913 -2.03657,0.26717 -0.67587,0.17039 -1.30616,0.4243 -1.86552,0.7891 -0.67396,0.43977 -0.91209,1.31461 -0.55448,2.03554 l 0.57826,1.16582 c -0.12899,0.12853 -0.32329,0.1624 -0.42995,0.31419 l -0.006,0.008 c -0.40793,0.58763 -0.59945,1.30989 -0.59945,1.99781 0,0.65688 0.17656,1.33037 0.52141,1.90014 0.005,0.009 0.0102,0.0183 0.0155,0.0274 0.36855,0.58353 0.91639,1.04421 1.52135,1.33997 0.65195,0.31873 1.3645,0.44131 2.09393,0.44131 0.59383,0 1.14825,-0.2244 1.69705,-0.44906 0.0941,0.12735 0.20699,0.23977 0.33435,0.33383 h 2.24793 c 0.87702,1.2e-4 1.58814,-0.71048 1.58801,-1.5875 v -3.82251 c 0,-1.38726 -0.45591,-2.7545 -1.4981,-3.61735 -0.97343,-0.82016 -2.24918,-1.14403 -3.60701,-1.14412 z m 27.73164,0.57051 c -0.002,0.002 -0.004,0.005 -0.006,0.007 l -5.2e-4,5.2e-4 -5.1e-4,5.1e-4 h -5.2e-4 -5.2e-4 c -0.002,3.5e-4 -0.004,1.6e-4 -0.006,5.2e-4 z m 61.27016,0.0233 c -0.002,0.002 -0.003,0.004 -0.005,0.005 h -5.2e-4 l -5.1e-4,5.2e-4 c -0.003,0.002 -0.006,0.002 -0.009,0.003 z m -70.30888,1.47949 c -0.005,0.002 -0.01,0.007 -0.015,0.009 -0.004,0.001 -0.009,1.6e-4 -0.0134,5.1e-4 z m 64.89216,0.0444 h 5.1e-4 l 0.0186,0.0114 c -0.003,-7.5e-4 -0.006,-7.6e-4 -0.01,-0.003 h -5.2e-4 l -5.1e-4,-5.2e-4 c -3.5e-4,-9e-5 -5.4e-4,9e-5 -0.001,0 -0.003,-0.002 -0.005,-0.006 -0.007,-0.008 z m -49.70394,0.009 h 5.1e-4 l 0.009,0.0145 c -0.002,-0.002 -0.004,-0.003 -0.006,-0.005 l -5.1e-4,-5.1e-4 -5.2e-4,-5.2e-4 -5.2e-4,-5.2e-4 h -5.1e-4 v -5.1e-4 -5.2e-4 l -5.2e-4,-5.2e-4 -5.2e-4,-5.1e-4 v -5.2e-4 -5.2e-4 c -2.9e-4,-0.002 -2.9e-4,-0.003 -5.1e-4,-0.005 z m -16.81345,0.001 0.008,0.0129 c -0.002,-0.001 -0.005,-0.003 -0.007,-0.005 v -5.2e-4 -5.1e-4 -5.2e-4 l -5.1e-4,-5.2e-4 v -5.1e-4 l -5.2e-4,-5.2e-4 v -5.2e-4 c -2.3e-4,-0.001 -4.1e-4,-0.003 -5.2e-4,-0.004 z m 78.11668,3.13521 v 5.2e-4 c -0.001,0.002 -0.002,0.006 -0.003,0.008 l -5.2e-4,5.2e-4 -5.1e-4,5.2e-4 -5.2e-4,5.1e-4 h -5.2e-4 l -5.2e-4,5.2e-4 h -5.1e-4 c -0.003,0.002 -0.007,0.002 -0.0103,0.004 z m 4.20646,0 0.031,0.0305 c -0.007,-0.003 -0.0157,-0.001 -0.0212,-0.007 -0.006,-0.006 -0.005,-0.0171 -0.01,-0.0238 z m -8.6372,0.0496 c -0.004,0.003 -0.0103,0.003 -0.0124,0.003 h -5.2e-4 v -5.2e-4 h 5.2e-4 v -5.1e-4 l 5.2e-4,-5.2e-4 c 0.002,-5.2e-4 0.005,-7.6e-4 0.0119,-0.002 z m -31.66731,2.92127 c 2.7e-4,-9e-5 10e-4,6e-5 0.002,0 h 5.1e-4 c 0.003,-1.3e-4 0.005,5.8e-4 0.009,0 l -0.0264,0.0139 c 0.004,-0.003 0.008,-0.009 0.0119,-0.0119 0.001,-8.2e-4 0.002,-0.002 0.004,-0.002 z m 2.60707,0.30127 h 5.2e-4 l -0.0119,0.0139 c 4.3e-4,-0.002 5e-4,-0.005 0.001,-0.007 v -5.2e-4 l 5.1e-4,-5.2e-4 v -5.2e-4 l 5.2e-4,-5.1e-4 5.2e-4,-5.2e-4 5.1e-4,-5.2e-4 c 0.003,-0.002 0.006,-0.003 0.008,-0.004 z m -18.40404,2.08669 c 0.006,0.001 0.012,5e-4 0.0176,0.003 0.005,0.002 0.008,0.005 0.0119,0.008 z m -35.54667,7.07864 c -0.29315,0 -0.52917,0.23601 -0.52917,0.52917 v 5.29167 c 0,0.29315 0.23602,0.52916 0.52917,0.52916 h 82.81458 c 0.29316,0 0.52917,-0.23601 0.52917,-0.52916 v -5.29167 c 0,-0.29316 -0.23601,-0.52917 -0.52917,-0.52917 z m 84.40208,0 v 3.175 3.175 l 2.64583,-1.5875 2.64584,-1.5875 -2.64584,-1.5875 z m -85.98958,0.032 -2.64583,1.5875 -2.64584,1.5875 2.64584,1.5875 2.64583,1.5875 v -3.175 z" /></g><path
       style="baseline-shift:baseline;display:inline;overflow:visible;vector-effect:none;fill:#343442;fill-opacity:1;stroke-linecap:round;stroke-linejoin:round;paint-order:stroke fill markers;enable-background:accumulate;stop-color:#000000"
       d="M 26.458462,-17.992577 H 305.8582 c 2.38188,0 4.23242,1.852495 4.23242,4.234375 V 28.57383 c 0,2.38188 -1.85054,4.234375 -4.23242,4.234375 H 26.458462 c -2.38188,0 -4.232422,-1.852495 -4.232422,-4.234375 v -42.332032 c 0,-2.38188 1.850542,-4.234375 4.232422,-4.234375 z"
       id="rect4-1"
       sodipodi:nodetypes="sssssssss" /><g
       id="path2"
       transform="matrix(7.1230679,0,0,7.1225672,10.761169,-82.104766)"
       style="stroke:none" /><g
       id="g4"
       transform="matrix(-7.1230679,0,0,7.1225672,124.70614,-82.104766)"><g
         id="path4"
         style="opacity:1" /></g><g
       id="g2"
       transform="translate(13.759243,-40.217186)"><path
         style="baseline-shift:baseline;display:inline;overflow:visible;opacity:1;vector-effect:none;stroke-linecap:round;stroke-linejoin:round;paint-order:stroke fill markers;enable-background:accumulate;stop-color:#000000;stop-opacity:1"
         d="m 12.699219,17.992187 c -4.6539201,0 -8.4667971,3.812878 -8.4667971,8.466797 v 42.332032 c 0,4.653919 3.812877,8.466796 8.4667971,8.466796 H 292.09896 c 4.65392,0 8.46679,-3.812877 8.46679,-8.466796 V 26.458984 c 0,-4.653919 -3.81287,-8.466796 -8.46679,-8.466797 z m 0,4.232422 H 292.09896 c 2.38188,0 4.23242,1.852495 4.23242,4.234375 v 42.332032 c 0,2.38188 -1.85054,4.234375 -4.23242,4.234375 H 12.699219 c -2.38188,0 -4.2324221,-1.852495 -4.2324221,-4.234375 V 26.458984 c 0,-2.38188 1.8505421,-4.234375 4.2324221,-4.234375 z"
         id="rect4"
         sodipodi:nodetypes="ssssssscssssssssss" /><path
         id="rect2"
         style="fill:#c2ed66;stroke-width:0.394341;stroke-linecap:round;stroke-linejoin:round;paint-order:stroke fill markers"
         d="M 279.39856 22.225003 L 279.39856 73.025002 L 292.15902 73.025002 C 294.51189 72.99417 296.33138 71.152982 296.33138 68.791152 L 296.33138 26.458853 C 296.33138 24.096921 294.51152 22.25568 292.15851 22.225003 L 279.39856 22.225003 z " /><path
         id="rect3"
         style="fill:#e06178;stroke-width:0.394341;stroke-linecap:round;stroke-linejoin:round;paint-order:stroke fill markers"
         d="M 12.639661 22.225003 C 10.286645 22.25568 8.4667888 24.096921 8.4667888 26.458853 L 8.4667888 68.791152 C 8.4667888 71.152982 10.286276 72.99417 12.639144 73.025002 L 25.400122 73.025002 L 25.400122 22.225003 L 12.639661 22.225003 z " /><path
         id="rect1"
         style="fill:#8eef97;fill-opacity:1;stroke-width:59.9199;stroke-linecap:round;paint-order:stroke fill markers"
         d="m 71.954789,22.225 c -2.344936,0 -4.232817,1.888069 -4.232817,4.233334 v 42.333331 c 0,2.345268 1.887881,4.233334 4.232817,4.233334 H 232.84405 c 2.34491,0 4.23281,-1.888066 4.23281,-4.233334 V 26.458334 c 0,-2.345265 -1.8879,-4.233334 -4.23281,-4.233334 z m -17.094564,8.465117 c -0.844531,0.03293 -1.681529,0.319911 -2.3828,0.844909 l -16.914212,12.7 c -2.261998,1.692504 -2.261998,5.070907 0,6.763411 l 16.914212,12.699999 c 2.791261,2.101259 6.785044,0.103953 6.778914,-3.389973 V 34.925 c -9.99e-4,-1.604601 -0.911091,-3.072213 -2.34766,-3.786849 -0.537171,-0.268823 -1.107893,-0.419091 -1.686719,-0.446484 -0.120589,-0.0057 -0.241087,-0.0063 -0.361735,-0.0015 z m 195.078385,0 c 0,0.120742 -0.24115,-0.0042 -0.36174,0.0015 -0.57879,0.02743 -1.14953,0.177668 -1.68671,0.446484 -1.43656,0.714641 -2.34619,2.182248 -2.34766,3.786849 v 25.383463 c -0.006,3.493931 3.98767,5.491232 6.77891,3.389973 l 16.91421,-12.699999 c 2.26198,-1.692504 2.26198,-5.070907 0,-6.763411 l -16.91421,-12.7 c -0.70126,-0.524998 -2.3828,-1.690071 -2.3828,-0.844909 z"
         sodipodi:nodetypes="sssssssssccccccccsccsccccccccss" /><text
         xml:space="preserve"
         style="font-style:normal;font-variant:normal;font-weight:800;font-stretch:normal;font-size:22.5778px;font-family:Montserrat;-inkscape-font-specification:'Montserrat Ultra-Bold';text-align:start;writing-mode:lr-tb;direction:ltr;text-anchor:start;fill:#000000;fill-opacity:1;stroke:none;stroke-width:0.264583;stroke-linecap:round;stroke-linejoin:round;stroke-dasharray:none;stroke-opacity:1;paint-order:stroke fill markers"
         x="75.511513"
         y="54.409626"
         id="text1"><tspan
           sodipodi:role="line"
           id="tspan1"
           style="font-style:normal;font-variant:normal;font-weight:800;font-stretch:normal;font-size:22.5778px;font-family:Montserrat;-inkscape-font-specification:'Montserrat Ultra-Bold';fill:#000000;fill-opacity:1;stroke:none;stroke-width:0.264583;stroke-dasharray:none;stroke-opacity:1"
           x="75.511513"
           y="54.409626">Range Slider</tspan></text></g><text
       xml:space="preserve"
       style="font-style:normal;font-variant:normal;font-weight:800;font-stretch:normal;font-size:12.7px;font-family:Montserrat;-inkscape-font-specification:'Montserrat Ultra-Bold';text-align:center;writing-mode:lr-tb;direction:ltr;text-anchor:middle;white-space:pre;inline-size:279.948;display:inline;fill:#ffffff;fill-opacity:1;stroke:#000000;stroke-width:3.175;stroke-linecap:round;stroke-linejoin:round;stroke-dasharray:none;stroke-opacity:1;paint-order:markers stroke fill"
       x="203.49486"
       y="75.672279"
       id="text2"
       transform="translate(-37.781291,-20.142272)"><tspan
         x="203.49486"
         y="75.672279"
         id="tspan4">Easily edit ranges as <tspan
   style="fill:#54ed9e"
   id="tspan3">Vector2</tspan> properties<tspan
   y="75.672279"
   id="tspan5"> </tspan></tspan><tspan
         x="203.49486"
         y="91.547274"
         id="tspan6">with a handy slider !</tspan></text><g
       id="g12"
       transform="translate(0,-0.99271451)"><path
         id="rect10"
         style="fill:#000000;fill-opacity:1;stroke:none;stroke-width:2.60935;stroke-linecap:round;stroke-linejoin:round;stroke-dasharray:none;stroke-opacity:1;paint-order:markers stroke fill"
         d="M 142.87499 81.514412 C 142.58184 81.514412 142.34583 81.75042 142.34583 82.043579 L 142.34583 87.335245 C 142.34583 87.628403 142.58184 87.864412 142.87499 87.864412 L 225.68957 87.864412 C 225.98273 87.864412 226.21874 87.628403 226.21874 87.335245 L 226.21874 82.043579 C 226.21874 81.75042 225.98273 81.514412 225.68957 81.514412 L 142.87499 81.514412 z M 227.27707 81.514412 L 227.27707 84.689412 L 227.27707 87.864412 L 229.92291 86.276912 L 232.56874 84.689412 L 229.92291 83.101912 L 227.27707 81.514412 z M 141.28749 81.546451 L 138.64166 83.133951 L 135.99583 84.721451 L 138.64166 86.308951 L 141.28749 87.896451 L 141.28749 84.721451 L 141.28749 81.546451 z " /><path
         style="fill:none;fill-opacity:1;stroke:#ffffff;stroke-width:0.705556;stroke-linecap:round;stroke-linejoin:round;stroke-dasharray:none;stroke-opacity:1;paint-order:markers stroke fill"
         d="m 184.28228,82.83707 v 3.704167"
         id="path12"
         sodipodi:nodetypes="cc" /></g><g
       id="text20"
       style="font-weight:800;font-size:12.7px;font-family:Montserrat;-inkscape-font-specification:'Montserrat Ultra-Bold';text-align:center;text-anchor:middle;white-space:pre;inline-size:279.948;fill:#ffffff;stroke:#000000;stroke-width:3.175;stroke-linecap:round;stroke-linejoin:round;paint-order:markers stroke fill"
       transform="translate(-37.781291,-15.909851)"
       aria-label="Easily edit ranges as Vector2 properties with a handy slider !"><g
         id="path23"
         style="opacity:1" /><g
         id="path24"
         style="opacity:1" /><g
         id="path25"
         style="opacity:1" /><g
         id="path26"
         style="opacity:1" /></g><g
       id="g22"
       transform="translate(0,3.2397065)" /></g></svg>
